<svg xmlns="http://www.w3.org/2000/svg" width="254.186" height="67.245" viewBox="0 0 254.186 67.245"><g transform="translate(0 0)"><path d="M200.17,53.034v8.788c0,3.207,3.5,5.423,8.047,5.423s8.049-2.216,8.049-5.423V53.034h-2.823v8.492c0,1.724-1.293,3.956-5.226,3.956s-5.225-2.232-5.225-3.956V53.034Z" fill="#1a1818"/><path d="M218.446,65.325c1.407,1.31,3.966,1.918,6.631,1.918,4,0,7.226-1.6,7.226-4.285,0-4.99-10.245-2.9-10.245-6.4,0-.867.94-2.119,4.052-2.119a5.3,5.3,0,0,1,3.7,1.214l2.289-1.392c-1.556-1.275-3.727-1.581-5.988-1.581-4.991,0-7.05,2.247-7.05,3.878,0,5.4,10.253,3.424,10.253,6.612,0,1.527-2.293,2.314-4.147,2.314a6.3,6.3,0,0,1-4.4-1.492Z" fill="#1a1818"/><path d="M233.57,66.894h3.29l2.055-3.426h9.9l2.086,3.426h3.288l-8.893-13.857h-2.558Zm6.344-5.078,3.935-6.358h.058l3.876,6.358Z" fill="#1a1818"/><path d="M14,66.885h6.726c7.368,0,11.3-3.358,11.3-6.871,0-2.543-2.125-6.874-10.834-6.874H14Zm2.8-12h4.194c6.7,0,8.066,3.379,8.066,5.127,0,3.4-4.019,5.123-8.736,5.123H16.792Z" fill="#1a1818"/><path d="M35.961,53.14v8.719c0,3.178,3.468,5.378,7.981,5.378s7.98-2.2,7.98-5.378V53.14h-2.8v8.425c0,1.707-1.281,3.921-5.183,3.921s-5.184-2.214-5.184-3.921V53.14Z" fill="#1a1818"/><path d="M73.825,54.926c-1.659-1.457-4.512-2.137-7.223-2.137-6.35,0-10.745,3.072-10.745,7.339,0,3.457,4.047,7.107,10.6,7.107,4.716,0,7.192-1.845,7.8-2.4L71.9,63.645a7.664,7.664,0,0,1-5.386,1.84c-4.806,0-7.691-2.463-7.691-5.357,0-3.125,3.058-5.591,7.691-5.591A7.881,7.881,0,0,1,71.5,56.112Z" fill="#1a1818"/><path d="M77.936,66.885h2.8V60.6H91.418v6.288h2.8V53.14h-2.8v5.707H80.734V53.14h-2.8Z" fill="#1a1818"/><path d="M99.814,66.885h13.834V65.139H102.611V60.732h9.783V58.983h-9.783v-4.1h10.511V53.14H99.814Z" fill="#1a1818"/><path d="M116.215,65.334c1.4,1.3,3.933,1.9,6.582,1.9,3.96,0,7.163-1.594,7.163-4.252,0-4.952-10.164-2.874-10.164-6.351,0-.852.936-2.1,4.021-2.1a5.274,5.274,0,0,1,3.668,1.2l2.272-1.378c-1.544-1.261-3.7-1.571-5.94-1.571-4.954,0-6.992,2.233-6.992,3.842,0,5.362,10.164,3.4,10.164,6.564,0,1.51-2.27,2.288-4.1,2.288a6.275,6.275,0,0,1-4.373-1.473Z" fill="#1a1818"/><path d="M134.4,66.885h2.8v-11.3h.06l11.473,11.3h3.555V53.14h-2.8v11.3h-.058l-11.359-11.3H134.4Z" fill="#1a1818"/><path d="M155.263,66.885h3.261l2.038-3.4h9.814l2.067,3.4h3.263L166.884,53.14h-2.535Zm6.291-5.026,3.9-6.313h.06l3.844,6.313Z" fill="#1a1818"/><path d="M181.389,66.885h2.8V61.021l7.807-7.881h-3.408l-5.8,6.038-5.622-6.038h-3.582l7.8,7.881Z" fill="#1a1818"/><path d="M38.618,44.067h-13.5l1.732-.832C30.267,43,42.69,41.689,42.69,31.077c0-11.349-13.42-11.349-13.42-11.349H23.664c-8.682,0-9.369,5.009-8.382,8.68,2.68,10-1.481,15.659-1.481,15.659H0c1.906-4.325,3.615-5.208,1.481-16.746C.722,23.214,3.493,17.208,12.144,17.208H38.618S54.711,18.759,54.711,30.88,38.618,44.067,38.618,44.067" fill="#6e005d"/><path d="M30.42,39.38c-1.2,2.08-3.428,3.036-4.976,2.144s-1.829-3.3-.629-5.382S28.244,33.1,29.791,34s1.832,3.3.629,5.382" fill="#d57120"/><path d="M35.648,10.537c-2.21,3.825-6.315,5.6-9.171,3.947S23.1,8.4,25.31,4.569s6.319-5.6,9.173-3.952,3.377,6.09,1.165,9.92" fill="#d57120"/></g></svg>