<svg xmlns="http://www.w3.org/2000/svg" width="21.92" height="21.92" viewBox="0 0 21.92 21.92"><g transform="translate(0)"><g transform="translate(0 0)"><path d="M780.677,605.92a10.964,10.964,0,0,1,0-21.92,9.96,9.96,0,0,1,1.519.115.457.457,0,0,1-.14.9,9.036,9.036,0,0,0-1.38-.1,10.051,10.051,0,0,0,0,20.093,9.717,9.717,0,0,0,8.556-5.21.457.457,0,1,1,.806.43A10.629,10.629,0,0,1,780.677,605.92Z" transform="translate(-770 -584)" fill="#7c004f"/><g transform="translate(6.221 0.11)"><path d="M833.393,602.66a9.029,9.029,0,0,1-8.9-9.133,9.162,9.162,0,0,1,5.74-8.536.457.457,0,1,1,.33.852,8.243,8.243,0,0,0-5.157,7.685,8.115,8.115,0,0,0,7.987,8.22,7.812,7.812,0,0,0,4.266-1.269.457.457,0,0,1,.5.766A8.726,8.726,0,0,1,833.393,602.66Z" transform="translate(-824.492 -584.96)" fill="#7c004f"/></g></g><g transform="translate(16.44 0)"><path d="M916.74,589.48a.457.457,0,0,1-.457-.457,1.829,1.829,0,0,0-1.827-1.827.457.457,0,1,1,0-.913,1.829,1.829,0,0,0,1.827-1.827.457.457,0,0,1,.913,0,1.829,1.829,0,0,0,1.827,1.827.457.457,0,1,1,0,.913,1.829,1.829,0,0,0-1.827,1.827A.457.457,0,0,1,916.74,589.48Zm-.77-2.74a.77.77,0,1,0,1.54,0,.77.77,0,1,0-1.54,0Z" transform="translate(-914 -584)" fill="#7c004f"/></g><g transform="translate(11.873 4.567)"><path d="M877.653,631.307a.457.457,0,0,1-.457-.457,2.743,2.743,0,0,0-2.74-2.74.457.457,0,1,1,0-.913,2.743,2.743,0,0,0,2.74-2.74.457.457,0,1,1,.913,0,2.743,2.743,0,0,0,2.74,2.74.457.457,0,1,1,0,.913,2.743,2.743,0,0,0-2.74,2.74A.457.457,0,0,1,877.653,631.307Zm-1.429-3.653a1.429,1.429,0,0,0,2.859,0,1.429,1.429,0,0,0-2.859,0Z" transform="translate(-874 -624)" fill="#7c004f"/></g></g></svg>