<?xml version="1.0" encoding="utf-8"?>
<!-- Generator: Adobe Illustrator 22.0.1, SVG Export Plug-In . SVG Version: 6.00 Build 0)  -->
<svg version="1.1" id="Layer_1" xmlns="http://www.w3.org/2000/svg" xmlns:xlink="http://www.w3.org/1999/xlink" x="0px" y="0px"
	 viewBox="0 0 54.7 41.3" style="enable-background:new 0 0 54.7 41.3;" xml:space="preserve">
<style type="text/css">
	.st0{fill:#83005B;}
</style>
<g id="youtube_1_">
	<path id="youtube" class="st0" d="M52.3,9.6c-1.7-4.9-5.9-8.3-8.9-8.8c-3-0.5-10.3-1-16.4-0.8S9.7,1.1,5.9,2C2,2.9,0.8,5.3,0.2,7.2
		c-0.5,1.9,0,8.1,0,12.7s0.6,8.2,1.3,11.5c0.7,3.3,2.8,6.9,4.7,8.1c1.8,1.2,7.5,1.6,13.4,1.8c5.9,0.2,15.4-0.2,21.2-0.4
		c5.8-0.2,8.2-1,10.1-2.4c2-1.3,3.6-6.9,3.7-12.9C54.8,19.8,53.9,14.5,52.3,9.6z M53,21.7c-0.1-0.2-2-4-2.6-4.7
		c-0.6-0.7-0.8-0.2-0.9,0c0,0.2,1.1,1.8,1.3,2.2c0.2,0.4,2.2,4.2,2.2,4.6c0,0.4-0.1,3.2-0.3,3.1c-0.2-0.1-3-6.9-3.3-6.8
		c-0.3,0.1-0.8,0.6-0.6,1c0.2,0.4,3.5,6.8,3.5,7.1c0,0.3-0.5,2.4-0.7,2.1c-0.2-0.3-3.2-7.6-3.4-7.7c-0.3,0-0.6,0.8-0.6,1
		c0,0.2,3.6,7.7,3.6,7.7s-0.8,2.2-1,2.2s-3.5-8.4-3.8-8.4c-0.3,0-0.4,0.8-0.4,0.8s3.5,8.5,3.4,8.6c-0.1,0.1-1.1,1.4-1.2,1.3
		c-0.1-0.2-2.7-8.3-3.2-8.3s-0.8,0.2-0.7,0.6c0.1,0.4,3.4,7.7,3.2,7.9c-0.2,0.2-1.2,0.6-1.4,0.5c-0.2-0.2-3.1-7.3-3.3-7.3
		c-0.2-0.1-0.6,0.2-0.6,0.3c0,0.2,3.1,7.6,3.1,7.6s-2,0.7-2.1,0.5s-2.8-7.3-3-7.3c-0.2,0-0.8,0.4-0.8,0.6c0,0.2,3,6.7,2.8,6.8
		c-0.2,0.1-2,0.2-2.1,0.1c-0.1-0.1-2.1-6.1-2.3-6.2c-0.2,0-0.8,0.4-0.9,0.5c0,0.1,2.2,5.9,2,5.9c-0.2,0-1.4,0.1-1.5-0.1
		c-0.1-0.2-1.8-6-2-6c-0.1,0-0.9,0.2-0.9,0.4c0,0.1,2.1,5.9,2,5.9c-0.2,0-1.6,0-1.7-0.1c-0.1-0.1-1.8-5.3-2-5.4c-0.2,0-1,0.2-1,0.4
		c0,0.2,1.9,5,1.7,5c-0.2,0-1.7,0-1.9-0.2c-0.2-0.2-1.8-5.2-2-5.2s-1,0.1-0.9,0.5c0.1,0.4,2.2,4.9,1.9,4.9s-1.6,0.2-1.8,0
		c-0.2-0.2-1.9-5.4-2.3-5.4c-0.4,0-0.9,0.4-0.9,0.6s2.3,4.9,2.1,4.9c-0.2,0-1.4,0-1.5-0.1c-0.1-0.1-2-4.8-2.2-4.8s-1.1,0-1,0.3
		c0.1,0.3,2.3,4.6,2.1,4.6c-0.2,0-1.3,0-1.4,0c-0.1,0-1.7-4.5-2-4.5c-0.3,0-1.1,0.3-1,0.5c0.1,0.2,2,4,1.9,4c-0.2,0-1.6-0.1-1.6-0.1
		s-1.5-3.8-1.8-3.9c-0.2,0-1,0.3-0.9,0.5c0.1,0.2,1.8,3.3,1.6,3.4c-0.2,0-1.3,0.1-1.4-0.1c-0.1-0.2-1.3-3-1.5-3s-1.1,0.1-1,0.4
		s1.4,2.7,1.3,2.7c-0.1,0-1.2,0-1.4-0.2c-0.2-0.2-1-2.6-1.2-2.6c-0.3,0-1,0.2-0.8,0.5c0.2,0.3,1,2.1,0.8,2.1c-0.2,0-1.1,0-1.2-0.2
		c-0.1-0.2-0.9-2.3-1.2-2.3c-0.3,0-1.1,0.2-1,0.5c0.2,0.2,0.9,1.8,0.7,1.8c-0.2,0-1-0.1-1-0.1s-0.8-2-1.2-2c-0.4-0.1-1.1,0.2-1,0.4
		c0.2,0.2,0.7,1.6,0.5,1.5c-0.2-0.1-3-0.7-4.3-1.9C4,34.4,2,30.7,1.8,26.7C1.6,22.8,1.2,14,1.2,11.4c0-2.6,0.3-4,1-5.4
		C2.7,4.9,4,3.7,7.9,3s9.5-1.6,15-1.7c5.5-0.1,12.5,0.4,14.9,0.4c2.3,0,7.7,0.3,10.2,3.4s3.3,5.1,4,7.6c0.8,2.5,0.7,3.4,0.7,3.4
		s-1.9-3.7-2-3.2c-0.1,0.5-0.3,1.3-0.1,1.6s2.3,3.8,2.3,4.2C52.9,19,53.1,22,53,21.7z M36.8,18.2c0-0.8-1.2-1.2-4.2-2.2
		c-3.1-1-7.5-2.5-9.1-2.6c-1.6-0.1-2.6,1.4-2.6,2.7c0,1.3,0,9.2,0.1,9.7c0.1,0.5,0.4,1,1,1c1.9,0,6.5-2.5,10.3-4.8
		C36.2,20,36.8,19.1,36.8,18.2z M23.8,25.2c-0.3,0-0.3-8,0.1-8.1c0.4-0.1,6.3,0.8,7.8,1.4c1.5,0.6,2.4,0.8,2.3,1.1
		c-0.1,0.3-3,1.9-5.5,3.3C25.9,24.3,24.2,25.3,23.8,25.2z M10.1,4.9C9.4,5,7.3,5.8,5.1,7.2s-2.8,3.4-2.8,5.1
		c0.1,1.8,0.3,2.3,0.7,2.3c0.5,0,0.7-1.6,0.6-2.2C3.5,11.9,4.2,10,5,9c0.8-1,4.8-2.7,5.3-3.1C10.8,5.5,10.9,4.8,10.1,4.9z M5.7,31.1
		c-0.6-0.5-0.6-2-0.7-2.3c-0.1-0.2-1.1-0.3-1.2-0.1c-0.2,2.1,1.3,4.1,1.8,4.3c0.6,0.2,1.2-0.2,1.2-0.6C6.8,32,6.3,31.6,5.7,31.1z
		 M19.6,18.9c-0.2-0.2-1-0.5-1.2-0.1c-0.2,0.4,0,5.5,0,6.1c0,0.6,0.2,1.4,0.6,1.5c0.4,0.1,0.7-0.5,0.6-1.2
		C19.6,24.6,19.8,19.1,19.6,18.9z M39.6,20.6c-0.7,0.4-8.1,4.7-8.3,5c-0.1,0.3,0,0.6,0.4,0.7c0.4,0.1,0.8,0.3,2-0.4
		c1.1-0.7,7.1-4.1,7.5-4.4c0.4-0.4,0.2-0.8-0.1-1C40.8,20.2,40.3,20.2,39.6,20.6z M41.6,3.6c-0.2,0-0.4,1.1,0,1.2
		c0.7,0.2,2.2,0.3,3.8,1.3c1.6,1,2.2,2.9,2.5,3.4c0.3,0.5,0.7,0.2,1-0.3c0.3-0.5-0.1-1.1-2-3.5S41.8,3.5,41.6,3.6z"/>
</g>
</svg>
