<svg xmlns="http://www.w3.org/2000/svg" width="49.188" height="22.188" viewBox="0 0 49.188 22.188"><g transform="translate(-264 -919.461)"><g transform="translate(291 919.461)"><g transform="translate(5.12 5.12)"><path d="M1809.974,235.947a5.974,5.974,0,1,1,5.974-5.974A5.98,5.98,0,0,1,1809.974,235.947Zm0-11.094a5.12,5.12,0,1,0,5.12,5.12A5.126,5.126,0,0,0,1809.974,224.853Z" transform="translate(-1804 -224)" fill="#7c004f"/></g><g transform="translate(0 0)"><path d="M1767.1,198.188h0a.427.427,0,0,1-.426-.427,3.183,3.183,0,0,0-.885-2.315,1.129,1.129,0,0,0-.659-.194,1.947,1.947,0,0,0-1.117.391.426.426,0,0,1-.547.107l-.012-.007a.427.427,0,0,1-.214-.335.438.438,0,0,1,0-.08,1.589,1.589,0,0,0-1.119-1.4,1.078,1.078,0,0,0-.188-.016,3.5,3.5,0,0,0-2.076,1.026.427.427,0,0,1-.6-.6,3.189,3.189,0,0,0,1.012-2.263,1.592,1.592,0,0,0-1.4-1.117.421.421,0,0,1-.14-.007.427.427,0,0,1-.322-.307l0-.012a.427.427,0,0,1,.143-.441,1.59,1.59,0,0,0,.2-1.781,3.205,3.205,0,0,0-2.316-.887.427.427,0,0,1,0-.853,3.184,3.184,0,0,0,2.315-.884,1.591,1.591,0,0,0-.195-1.776.426.426,0,0,1-.114-.538l.007-.012a.427.427,0,0,1,.424-.223,1.592,1.592,0,0,0,1.4-1.118,3.212,3.212,0,0,0-1.012-2.266.427.427,0,0,1,.6-.6,3.48,3.48,0,0,0,2.072,1.028,1.066,1.066,0,0,0,.189-.016,1.587,1.587,0,0,0,1.119-1.393.42.42,0,0,1,.007-.146.426.426,0,0,1,.313-.32l.013,0a.426.426,0,0,1,.382.091.421.421,0,0,1,.053.055,1.945,1.945,0,0,0,1.119.393,1.137,1.137,0,0,0,.661-.195,3.213,3.213,0,0,0,.887-2.317.426.426,0,0,1,.427-.425h0a.427.427,0,0,1,.426.427,3.186,3.186,0,0,0,.884,2.316,1.131,1.131,0,0,0,.66.195,1.939,1.939,0,0,0,1.119-.394.426.426,0,0,1,.57-.089l.01.007a.427.427,0,0,1,.189.334.391.391,0,0,1,0,.06,1.585,1.585,0,0,0,1.118,1.4,1.076,1.076,0,0,0,.191.016,3.5,3.5,0,0,0,2.073-1.026.427.427,0,0,1,.6.6,3.188,3.188,0,0,0-1.011,2.263,1.594,1.594,0,0,0,1.4,1.117.427.427,0,0,1,.43.227.427.427,0,0,1-.113.549,1.58,1.58,0,0,0-.191,1.77,3.188,3.188,0,0,0,2.314.888.427.427,0,0,1,0,.853,3.192,3.192,0,0,0-2.315.886,1.592,1.592,0,0,0,.2,1.776.426.426,0,0,1,.114.537l-.006.012a.427.427,0,0,1-.425.223,1.584,1.584,0,0,0-1.394,1.117,3.179,3.179,0,0,0,.987,2.242.427.427,0,0,1-.278.751h0a.425.425,0,0,1-.3-.125,3.484,3.484,0,0,0-2.073-1.027,1.064,1.064,0,0,0-.188.016,1.592,1.592,0,0,0-1.119,1.395.419.419,0,0,1,0,.133.426.426,0,0,1-.292.325l-.013,0a.427.427,0,0,1-.461-.141,1.934,1.934,0,0,0-1.114-.391,1.132,1.132,0,0,0-.661.2,3.2,3.2,0,0,0-.887,2.316A.427.427,0,0,1,1767.1,198.188Zm-1.971-3.789a1.993,1.993,0,0,1,1.147.347.852.852,0,1,0,1.651,0,2,2,0,0,1,1.149-.348,2.68,2.68,0,0,1,1.168.282,2.278,2.278,0,0,1,1.685-1.593,2.627,2.627,0,0,1,1.336.169,2.568,2.568,0,0,1-.169-1.337,2.271,2.271,0,0,1,1.591-1.684,2.278,2.278,0,0,1,.063-2.318,2.577,2.577,0,0,1,1.065-.826,2.569,2.569,0,0,1-1.063-.826,2.27,2.27,0,0,1-.066-2.316,2.281,2.281,0,0,1-1.6-1.683,2.582,2.582,0,0,1,.17-1.337,2.614,2.614,0,0,1-1.336.168,2.268,2.268,0,0,1-1.683-1.59,2.684,2.684,0,0,1-1.172.283,2,2,0,0,1-1.148-.348.852.852,0,1,0-1.649,0,2,2,0,0,1-1.149.348,2.687,2.687,0,0,1-1.169-.282,2.276,2.276,0,0,1-1.686,1.594,1.925,1.925,0,0,1-.34.029,2.9,2.9,0,0,1-1-.2,2.575,2.575,0,0,1,.171,1.336,2.279,2.279,0,0,1-1.594,1.684,2.278,2.278,0,0,1-.063,2.319,2.567,2.567,0,0,1-1.064.825,2.572,2.572,0,0,1,1.064.825,2.276,2.276,0,0,1,.064,2.318,2.278,2.278,0,0,1,1.6,1.684,2.58,2.58,0,0,1-.17,1.337,2.623,2.623,0,0,1,1.335-.169,2.276,2.276,0,0,1,1.685,1.592A2.688,2.688,0,0,1,1765.124,194.4Z" transform="translate(-1756 -176)" fill="#7c004f"/></g></g><g transform="translate(264 919.73)"><g transform="translate(0 0)"><path d="M780.677,605.92a10.964,10.964,0,0,1,0-21.92,9.96,9.96,0,0,1,1.519.115.457.457,0,0,1-.14.9,9.036,9.036,0,0,0-1.38-.1,10.051,10.051,0,0,0,0,20.093,9.717,9.717,0,0,0,8.556-5.21.457.457,0,1,1,.806.43A10.629,10.629,0,0,1,780.677,605.92Z" transform="translate(-770 -584)" fill="#7c004f"/><g transform="translate(6.221 0.11)"><path d="M833.393,602.66a9.029,9.029,0,0,1-8.9-9.133,9.162,9.162,0,0,1,5.74-8.536.457.457,0,1,1,.33.852,8.243,8.243,0,0,0-5.157,7.685,8.115,8.115,0,0,0,7.987,8.22,7.812,7.812,0,0,0,4.266-1.269.457.457,0,0,1,.5.766A8.726,8.726,0,0,1,833.393,602.66Z" transform="translate(-824.492 -584.96)" fill="#7c004f"/></g></g><g transform="translate(16.44 0)"><path d="M916.74,589.48a.457.457,0,0,1-.457-.457,1.829,1.829,0,0,0-1.827-1.827.457.457,0,1,1,0-.913,1.829,1.829,0,0,0,1.827-1.827.457.457,0,0,1,.913,0,1.829,1.829,0,0,0,1.827,1.827.457.457,0,1,1,0,.913,1.829,1.829,0,0,0-1.827,1.827A.457.457,0,0,1,916.74,589.48Zm-.77-2.74a.77.77,0,1,0,1.54,0,.77.77,0,1,0-1.54,0Z" transform="translate(-914 -584)" fill="#7c004f"/></g><g transform="translate(11.873 4.567)"><path d="M877.653,631.307a.457.457,0,0,1-.457-.457,2.743,2.743,0,0,0-2.74-2.74.457.457,0,1,1,0-.913,2.743,2.743,0,0,0,2.74-2.74.457.457,0,1,1,.913,0,2.743,2.743,0,0,0,2.74,2.74.457.457,0,1,1,0,.913,2.743,2.743,0,0,0-2.74,2.74A.457.457,0,0,1,877.653,631.307Zm-1.429-3.653a1.429,1.429,0,0,0,2.859,0,1.429,1.429,0,0,0-2.859,0Z" transform="translate(-874 -624)" fill="#7c004f"/></g></g></g></svg>