<svg id="Layer_1" data-name="Layer 1" xmlns="http://www.w3.org/2000/svg" viewBox="0 0 841.1 516.24"><defs><style>.cls-1,.cls-2{fill:#fff;}.cls-2{stroke:#fff;stroke-miterlimit:10;stroke-width:2px;}</style></defs><title>osphena-logo-white</title><path class="cls-1" d="M690.8,69.4c-23.5,0-40.1-7.1-56.1-12.7-15.5-5.4-37.9-11.4-58.5-11.4-25,0-45.9,10.3-45.9,10.3.4-.7,17.8-15.1,53.6-15.1,22.6,0,41.9,6.3,57.6,11.8,15.9,5.6,27.7,11,49.3,11,25.8,0,38.3-7.7,42.1-13.7,6.8-10.9,1.4-19,11.2-19,12.4,0,20.4,4.6,31.3,9.5,12.6,5.7,37.7,8.4,37.7,8.4s-22,1.5-43.4-7.2c-15.2-6.2-19.3-6.2-20.5-2.3-3.2,10.5-12.9,30.4-58.4,30.4ZM710.6,3.6c1-4.5,9.1-5.1,14,.5,5.7,6.5,3.6,11.2,3.6,11.2s-.2-2.6-4.4-4.9-14.5-.9-13.2-6.8Z" transform="translate(1 -0.06)"/><path class="cls-1" d="M683.8,63.1c-15.4,0-42.4-8.9-59.3-15.9-16.4-6.8-40-14.3-61.9-14.3-26.4,0-51.2,20-51.2,20,.5-.9,21.4-25.9,59.4-25.9,23.9,0,44.4,8,60.9,14.8,16.8,7,35.3,13.8,53.4,13.8,27.3,0,39.2-9.7,43.2-17.2,7.3-13.6,1.5-23.8,11.8-23.8,13.2,0,21.6,5.7,33.1,11.9C786.5,33.6,813.1,37,813.1,37s-23.2,1.9-45.9-9c-16.1-7.7-19.5-7.5-20.1-2.4-1.5,11.9-11.6,37.5-63.3,37.5Z" transform="translate(1 -0.06)"/><path class="cls-1" d="M702.7,20.3C699.3,15.8,705.3,8,714.4,8c10.5,0,13.1,5.6,13.1,5.6s-2.6-1.9-8,.1S707.1,26.2,702.7,20.3Z" transform="translate(1 -0.06)"/><path class="cls-2" d="M20.5,270.1c-8.7,15.7-15.6,38-15.6,61.8s6.9,46.1,15.6,61.8H16.2a126,126,0,0,1,0-123.6Z" transform="translate(1 -0.06)"/><path class="cls-2" d="M41,376.5c-19.7,0-24.6-17.6-24.6-39.1s4.9-39,25.4-39c19.7,0,24.6,17.6,24.6,39C66.4,359,61.5,376.5,41,376.5Zm.4-73.2c-14.3,0-19,12.7-19,34.3,0,21.4,4.7,34.1,19,34.1s19-12.7,19-34.1C60.4,316,55.7,303.3,41.4,303.3Zm66.8,17.8V319c0-6.7-1.7-15.7-14-15.7-7.9,0-14.4,4-14.4,13.8,0,7.9,3.7,11.9,11.1,14.7l11.4,4.3c9,3.4,13.6,9.7,13.6,19.8,0,12.6-9.7,20.6-21.6,20.6-20.7,0-22.1-14.8-22.1-23.6v-2h5.4v2.4c0,10.6,4.3,18.3,16.7,18.3,11,0,15.6-7.3,15.6-15.6,0-7.1-2.9-12-11.1-15.3l-11-4.4c-9.3-3.7-14-9.1-14-18.7,0-12.4,8.6-19.3,20.4-19.3,16.6,0,19.4,11.3,19.4,20.4V321h-5.4Zm16-20.9h5.4v13.1h.3c2.7-8,7.6-14.8,19.1-14.8,17.7,0,23,17,23,38.8,0,23.1-5.9,39.3-23.3,39.3-10.4,0-17-6-18.8-16.1h-.3V400h-5.4Zm23.7,71.5c14.7,0,18.1-15.4,18.1-34.4,0-24-7-34-17.1-34-13.7,0-19.3,11-19.3,34C129.6,359.1,134.6,371.7,147.9,371.7Zm38.5-34.6c0,12,.1,34.6,17.6,34.6,15.7,0,18.3-15.7,18.3-21.3h5.4c0,11.4-6.3,26.1-23.1,26.1-19.3,0-24.1-15.7-24.1-41.1,0-22.8,8.1-37,25-37,17.6,0,23.3,14.6,23.3,38.7H186.4Zm36.3-4.8c0-13.6-2.1-29-17.6-29-16.6,0-18.7,19.3-18.7,29Zm16-32.1h5.4v11.1h.3c2.1-7.7,8.7-12.9,18-12.9,11.6,0,15.1,7.1,16.1,14h.3c1-5.4,6.6-14,18.3-14,11.9,0,17.8,7.1,17.8,19v57.4h-5.4V318.7c0-10-5.1-15.4-12.9-15.4-11.1,0-17.1,9.1-17.1,22v49.5h-5.4V321.3c0-11.1-3.7-18-13.1-18-11.7,0-16.8,10.3-16.8,22v49.5h-5.4V300.2Zm89.4-27.3h5.4v14.6h-5.4Zm0,27.3h5.4v74.7h-5.4V300.2Zm24.8,4.8H342.8v-4.9h10.1V287.7c0-8.6,3.1-14.8,13.1-14.8a27.36,27.36,0,0,1,5.6.4v4.9a20.53,20.53,0,0,0-4.7-.4c-4.7,0-8.6,2.1-8.6,9.7v12.7h12.4v4.9H358.3v69.8h-5.4Zm26.8,32.1c0,12,.1,34.6,17.6,34.6,15.7,0,18.3-15.7,18.3-21.3H421c0,11.4-6.3,26.1-23.1,26.1-19.3,0-24.1-15.7-24.1-41.1,0-22.8,8.1-37,25-37,17.6,0,23.3,14.6,23.3,38.7H379.7Zm36.3-4.8c0-13.6-2.1-29-17.6-29-16.6,0-18.7,19.3-18.7,29Zm14.9-32.1h5.4v11.3h.3a20,20,0,0,1,19-13c10.6,0,18.8,6,18.8,20.1v56.3H469V321.2c0-13.3-5.6-17.8-14.8-17.8-11.4,0-17.8,10.7-17.8,23.7v47.8H431V300.2Zm59.8,36.9c0,12,.1,34.6,17.6,34.6,15.7,0,18.3-15.7,18.3-21.3H532c0,11.4-6.3,26.1-23.1,26.1-19.3,0-24.1-15.7-24.1-41.1,0-22.8,8.1-37,25-37,17.6,0,23.3,14.6,23.3,38.7H490.7Zm36.2-4.8c0-13.6-2.1-29-17.6-29-16.6,0-18.7,19.3-18.7,29Z" transform="translate(1 -0.06)"/><path class="cls-2" d="M532.3,270.1a126.32,126.32,0,0,1,.1,123.6H528c8.7-15.7,15.6-38,15.6-61.8s-6.9-46.2-15.6-61.8Z" transform="translate(1 -0.06)"/><path class="cls-2" d="M581.4,310h8.8V290.8h4.7V310h10.8v4.2H594.9v50c0,6.2,3,7.2,5.7,7.2a19.59,19.59,0,0,0,5.8-.7v4.2a33.92,33.92,0,0,1-6.7.7c-6.7,0-9.5-3.8-9.5-10.9V314.3h-8.8Zm65.4,57c0,3.1,1.2,4.3,2.9,4.3a6,6,0,0,0,3-.6v3.7a9.5,9.5,0,0,1-5,1.1c-2,0-5.6-2-5.6-7.1v-4.1h-.2c-1.9,6.7-8.3,11.9-17,11.9-11.3,0-16.2-8.1-16.2-18.1,0-9.8,4-15.4,13.1-17.8l14-3.8c5.6-1.5,6.3-4.1,6.3-9.5,0-11.8-5.5-14.3-12.5-14.3-10.9,0-14.1,6.8-14.1,15.7h-4.7c0-8.8,3.2-20,18.3-20,14.3,0,17.7,7.8,17.7,17.1Zm-4.7-30h-.2c-1.6,2.6-3.3,3-8.2,4.3l-9.5,2.6c-7.6,2.1-10.3,6.6-10.3,14.3,0,8.4,3.7,13.9,11.9,13.9,11,0,16.4-8.7,16.4-21.7V337ZM658,286.3h4.7v35.1h.2c2.4-6.9,6.6-12.9,16.6-12.9,16.2,0,20,14.8,20,33.7,0,20.1-5.1,34.1-20.2,34.1-9,0-14.8-5.2-16.4-14h-.2v12.5H658V286.3Zm4.7,55.9c0,19,4.3,29.9,15.9,29.9,12.8,0,15.7-13.4,15.7-29.9,0-20.2-4-29.5-14.9-29.5C667.5,312.7,662.7,322.3,662.7,342.2Zm43.4-55.9h4.7v88.5h-4.7Zm19,55.8c0,10.4.1,30,15.2,30,13.6,0,15.9-13.6,15.9-18.5h4.7c0,9.9-5.5,22.7-20.1,22.7-16.7,0-20.9-13.6-20.9-35.7,0-19.8,7.1-32.1,21.7-32.1,15.2,0,20.2,12.6,20.2,33.6H725.1Zm31.4-4.2c0-11.8-1.9-25.2-15.2-25.2-14.4,0-16.2,16.7-16.2,25.2Zm7.6-27.9h8.8V290.8h4.7V310h10.8v4.2H777.6v50c0,6.2,3,7.2,5.7,7.2a19.59,19.59,0,0,0,5.8-.7v4.2a33.92,33.92,0,0,1-6.7.7c-6.7,0-9.5-3.8-9.5-10.9V314.3h-8.8ZM825,328.2v-1.9c0-5.8-1.5-13.6-12.1-13.6-6.8,0-12.5,3.5-12.5,12,0,6.8,3.2,10.3,9.7,12.8l9.9,3.7c7.8,3,11.8,8.4,11.8,17.2,0,10.9-8.4,17.8-18.7,17.8-18,0-19.2-12.9-19.2-20.5V354h4.7v2.1c0,9.2,3.7,15.9,14.5,15.9,9.5,0,13.5-6.3,13.5-13.5,0-6.2-2.5-10.4-9.7-13.3l-9.5-3.8c-8.1-3.2-12.1-7.9-12.1-16.2,0-10.8,7.4-16.7,17.7-16.7,14.4,0,16.9,9.8,16.9,17.7v2Z" transform="translate(1 -0.06)"/><path class="cls-1" d="M36.6,426.9c0-7.3-3.9-12.9-11.1-12.9-14,0-14.9,21.8-14.9,26.4v6.9h.2c1.7-3.2,6.8-9.8,16.1-9.8,14.6,0,22,11.3,22,27.8,0,17-8.1,30-23.8,30-23.3,0-25-23.4-25-41.6,0-20.1,1.2-47.8,25.6-47.8,19.6,0,21.3,17,21.3,21.1H36.6ZM25.1,487.1c10.5,0,13.3-11.2,13.3-20.3s-2.1-20.3-13.3-20.3-13.3,11.2-13.3,20.3S14.7,487.1,25.1,487.1Zm26.3-36.2c0-19.3,1.3-45.1,24-45.1s24,23.5,24,45.1c0,18.6-1.3,44.4-24,44.4S51.4,471.7,51.4,450.9Zm24.1,36.2c12.9,0,13.6-17.7,13.6-36.2,0-19.3-.7-36.9-13.6-36.9s-13.6,17.6-13.6,36.9C61.9,469.4,62.6,487.1,75.5,487.1Zm43-60H128v7.8h.2c2.6-6.1,9.3-9.5,15.5-9.5,7.4,0,11.8,3,13.8,10.5,2.9-5.8,8.6-10.5,15.1-10.5,16.8,0,16.8,13.3,16.8,21.1v47.1h-10V447.7c0-5.1-.4-13.4-8.6-13.4-4.6,0-11.9,3-11.9,13.4v45.9h-10V447.7c0-5.1-.4-13.4-8.6-13.4-4.6,0-11.9,3-11.9,13.4v45.9h-10V427.1Zm119.9,62.2c0,19.8-8.8,27-21.7,27-3.9,0-19.3,0-20.9-16.6h10c.5,6.1,5,8.4,10.2,8.4,12.9,0,12.4-10.3,12.4-14.9v-8.7h-.2c-2.1,5.6-8.1,8.9-14.4,8.9-18.6,0-19.8-24.4-19.8-33.2,0-18,4.6-35,20.8-35,6.9,0,12.5,5,13.8,10.2h.2V427h9.5v62.3Zm-34-29c0,10.8,1.5,24.3,11.5,24.3,10.8,0,13-10.7,13-24.3,0-12.9-2.1-26-12.9-26C206.8,434.3,204.4,444.5,204.4,460.3Z" transform="translate(1 -0.06)"/><path class="cls-1" d="M92.7,74.1c-29.2,0-51.8,9.6-67.2,28.4S2.3,143.8,2.3,169.1c0,12.8,2.4,23.5,7.1,31.6A46,46,0,0,0,29,219.2c8.3,4.2,20.3,6.3,35.7,6.3a85.2,85.2,0,0,0,43.9-11.8c13.2-7.8,24.1-19.4,32.4-34.3a99.39,99.39,0,0,0,12.5-48.9c0-18-5.2-32.1-15.5-41.8S112.6,74.1,92.7,74.1Zm-23,144.1c-10.3,0-19.3-2-26.8-6.1A39.83,39.83,0,0,1,26,195.5c-3.7-7-5.5-16.6-5.5-28.7,0-17.6,3.1-33.6,9.2-47.5s13.9-24,23.1-30,20.5-8.9,33.6-8.9c10.6,0,19.6,1.9,26.8,5.7a38.42,38.42,0,0,1,16.5,16.4c3.7,7,5.6,16.5,5.6,28.3,0,23.2-5.1,43.4-15.2,60-11.2,18.1-28.1,27.4-50.4,27.4Zm95.9,2a57.8,57.8,0,0,0,11,3.9,46.25,46.25,0,0,0,11.7,1.4c12.1,0,23.2-4.2,33-12.6s14.7-17,14.7-26c0-6.4-2.1-11.2-6.4-14.2-3.1-2.1-10.1-4.2-20.8-6-9.8-1.8-15.8-3.5-18.4-5.2-3.5-2.3-5.3-6.1-5.3-11.1,0-6,2.1-10.9,6.4-14.6s10.2-5.5,17.8-5.5,13.8,2,18.7,5.8c1.7,1.4,2.6,4,2.6,7.7,0,1.9,0,4.2-.1,6.9h3.6a162,162,0,0,1,3.7-22.8,59.22,59.22,0,0,0-10.4-3.7A41.5,41.5,0,0,0,197,128c-9,4.9-15.3,9.7-18.6,14.2a24.75,24.75,0,0,0-5,14.9c0,7,2.4,12.3,7.3,15.8,3.7,2.6,12.1,4.9,24.9,6.9,7.6,1.2,12.4,2.8,14.9,5.1s3.7,6,3.7,10.9a21.94,21.94,0,0,1-7.2,16.8c-4.7,4.5-10.8,6.7-18,6.7a38.45,38.45,0,0,1-12.7-2.1,39.81,39.81,0,0,1-11.6-6.3l-.3-.2-.1-8.1.1-9h-4.2a192.16,192.16,0,0,1-4.6,26.6ZM545.3,123c-4.9,0-10.4,1.5-16.5,4.3-11,5.1-19.2,10.2-24.2,15.2s-9.6,13.3-13.5,24.7-5.9,22-5.9,31.3c0,8.7,2.3,15.5,6.8,20.1s11,6.9,19.3,6.9a47.27,47.27,0,0,0,19.1-4.5c6.7-2.9,15.2-8.5,25.4-16.7l-1-3c-9.3,6.1-16.6,10.2-21.8,12.2a39.67,39.67,0,0,1-14.1,3.1,17.86,17.86,0,0,1-13.3-5.4c-3.5-3.6-5.3-8.3-5.3-14.2a115,115,0,0,1,2.2-18.7l.1-.5.5-.1c40.5-7.7,61-20.9,61-39.3a14.25,14.25,0,0,0-5-11.3c-3.3-2.6-8-4.1-13.8-4.1Zm-42.1,51.6.2-1.2c2.4-11.3,5.5-20.4,9.1-27.2a28.74,28.74,0,0,1,10.9-11.9,27.21,27.21,0,0,1,13.9-4c3.5,0,6.3,1,8.2,3s2.9,5,2.9,8.9c0,7.1-3.6,13.7-10.7,19.5s-18.2,10-33.3,12.7l-1.2.2Zm156.7-39.9a4.82,4.82,0,0,1,3.7,1.5,5.72,5.72,0,0,1,1.4,4c0,5.9-3.4,21-10.2,46-4.8,17.5-7.2,28.5-7.2,32.5a7.56,7.56,0,0,0,1.7,5.2,5.51,5.51,0,0,0,4.3,1.8c5.7,0,17.5-6.5,35-19.3l-1.3-2.8-6.1,3.9c-6.4,4.3-10.7,6.4-13.1,6.4-2.7,0-4.2-1.4-4.2-4,0-3.2,2.3-13.7,6.9-32.1,6.2-24.5,9.6-38.8,10.4-42.5a30.11,30.11,0,0,0,.8-6.2,6.27,6.27,0,0,0-1.5-4.5,5.68,5.68,0,0,0-4.2-1.5c-4.3,0-10.3,1.8-17.9,5.2s-15.8,9.1-24.3,16.7a131.66,131.66,0,0,0-22.2,26l-2.5,3.8,9.6-40.7a33.27,33.27,0,0,0,.7-6,5.25,5.25,0,0,0-1.2-3.8,4.31,4.31,0,0,0-3.3-1.2,19.35,19.35,0,0,0-7.9,2.2c-6.6,3.3-15.7,8.9-27.2,16.8l1.1,2.9c9.1-6.2,15-9.2,17.9-9.2a4.16,4.16,0,0,1,3.2,1.4,6.13,6.13,0,0,1,1.1,3.8c0,4.2-1.5,13.7-4.5,28.9a517.66,517.66,0,0,1-13.8,54.6l1.1,1.1a128,128,0,0,1,14.7-3c3.5-20.9,8.3-37.3,14.4-48.8a91,91,0,0,1,26-30.1c8-6.1,14.1-9,18.6-9ZM766,123a40.68,40.68,0,0,0-19.1,4.8c-9.8,5.2-16.5,10-19.9,14.5-4.5,6-8.9,16.2-13.3,30.3s-6.5,26.5-6.5,36.7c0,5.9.9,10.4,2.6,13.5a5.06,5.06,0,0,0,4.5,2.7c3.5,0,9.1-3,16.9-8.8,11.6-8.8,22.7-20.5,33.1-34.7l.3-.4,2.3.3-.2.9c-4.9,17.9-7.4,29.9-7.4,35.5a7.69,7.69,0,0,0,1.2,4.8c.8.9,2,1.3,3.8,1.3a19.77,19.77,0,0,0,8.9-2.7,143.66,143.66,0,0,0,22.3-15.5l-.9-3c-10.9,8.5-14.3,9.5-15.9,9.5a3.54,3.54,0,0,1-3-1.3,5.34,5.34,0,0,1-1.1-3.6c0-3.4,1.1-10.3,3.4-21,3.9-18.2,9.4-39.2,16.5-62.7l-1.6-1-6.8,3.6-.3-.1a81.35,81.35,0,0,0-10.5-2.7A53,53,0,0,0,766,123Zm-39.6,89.8a3.92,3.92,0,0,1-3.4-1.9c-.9-1.2-1.3-3.1-1.3-5.8,0-9.4,1.7-20.4,4.9-32.6s7-22.6,11-30.5c2.2-4.2,3.9-6.5,5.4-7.3a42,42,0,0,1,15.8-2.9,49.47,49.47,0,0,1,8.3.8,62.39,62.39,0,0,1,9.2,2.7l.6.2-.1.7c-3.3,17.7-8.1,32-14.2,42.5a103.69,103.69,0,0,1-19.1,22.9c-8.3,7.5-13.9,11.2-17.1,11.2Zm-337.1-39c6.3-13.4,35.7-38.9,35.7-38.9,15.6-11.1,25.7-11.6,25.7-11.6,6.2-.7,7.5,3.8,7.5,3.8,1.5,5.2-1.2,15.5-1.2,15.5-.6,2.8-10,42.5-10,42.5a219.1,219.1,0,0,0-5.1,23.2c-.5,4.5,2.5,4.9,2.5,4.9,2.9,1.3,9.1-2.3,9.1-2.3,5.3-3.2,11.8-7.5,11.8-7.5l1.3,2.8c-.7.7-21,13.7-21,13.7-7.8,5.2-12.4,5.6-12.4,5.6-5.8.5-7.1-5.1-7.1-5.1-1.3-2.7,1.6-14.5,1.6-14.5,6.7-25.9,13.3-58.6,13.3-58.6,1.6-8.4-.9-10-.9-10-3.6-3.5-13.7,3.1-13.7,3.1-23.1,14.5-31.4,33.8-31.4,33.8-8.2,15.6-12.3,42.4-12.3,42.4l-.9,5.6a62.69,62.69,0,0,0-14.3,3.4l-1.7-1.7,16.7-75.6C393.2,99.8,393.1,92,393.1,92c.9-7.4-3.5-7.5-3.5-7.5-2.9-.3-7.7,2.4-7.7,2.4-4.2,2.3-11,6.8-11,6.8l-1.1-2.9s19.4-13.6,31.7-18.6c0,0,10.5-4,7.8,7.9C406.8,91.9,389.3,173.8,389.3,173.8ZM281.7,211c6.2,3.8,12.4,4.5,18.6,4.5,6,0,11.3-.9,16-5.1s9.5-12.9,14.4-26.1,7.4-26.7,7.4-38c0-4.1-.6-7.1-1.8-8.8s-3.1-2.5-5.7-2.5c-6,0-12.9,3.2-20.5,9.5s-13.8,15-18.6,26.1q-4.05,9.15-8.4,31.8Zm-6-40.6c4.5-22.8,4.3-27.6,4.3-27.6.8-7.3-3.4-6.9-3.4-6.9-2.9-.3-7.7,2.4-7.7,2.4-4.2,2.3-11,6.8-11,6.8l-1.1-2.9s19.4-13.6,31.7-18.6c0,0,10.5-4,7.8,7.9-.9,4-3.6,16.5-6.6,30.6,5.6-9.1,11.8-17.1,17.4-22.3a66.85,66.85,0,0,1,18.6-12.3q10.2-4.5,16.2-4.5a8.1,8.1,0,0,1,7.4,4.3c2.8,4.7,4.3,10.5,4.3,17.5a95.92,95.92,0,0,1-7,35.2c-4.6,11.6-9.5,18.7-14.7,23.5s-11.5,10.7-19.1,15.2-14.3,6.8-20,6.8c-3.5,0-8.2-1.1-13.4-2.8-4.6,22.2-9.3,39.7-11.1,54.3a83.23,83.23,0,0,0-15.2,3l-1.4-1.1c7.1-29,16.4-65.2,24-108.5" transform="translate(1 -0.06)"/><path class="cls-1" d="M835.8,145.8a13.82,13.82,0,0,1-10.1,4.2,14.17,14.17,0,0,1-14.2-14.3,13.82,13.82,0,0,1,4.2-10.1,14.3,14.3,0,0,1,24.4,10.1,14.33,14.33,0,0,1-4.3,10.1ZM817,127a11.85,11.85,0,0,0-3.6,8.7,12.24,12.24,0,0,0,3.6,8.8,12.34,12.34,0,1,0,8.7-21.1A11.13,11.13,0,0,0,817,127Zm8.4.8a11.56,11.56,0,0,1,4.3.6,3.93,3.93,0,0,1,2.4,4,3.5,3.5,0,0,1-1.5,3.1,5.58,5.58,0,0,1-2.3.8,4,4,0,0,1,2.7,1.5,4,4,0,0,1,.9,2.4v2.3a5.39,5.39,0,0,0,.1.8l.1.2h-2.6v-.4l-.1-.5v-1.2q0-2.7-1.5-3.6a7.27,7.27,0,0,0-3.1-.5h-2.2v6.2H820V127.8h5.4Zm3,2.4a6.91,6.91,0,0,0-3.3-.6h-2.4v5.7h2.5a5.88,5.88,0,0,0,2.6-.4,2.34,2.34,0,0,0,1.6-2.5,2.17,2.17,0,0,0-1-2.2Z" transform="translate(1 -0.06)"/></svg>