<svg id="osphena-logo" xmlns="http://www.w3.org/2000/svg" width="142.906" height="88.143" viewBox="0 0 142.906 88.143">
  <g id="Group_372" data-name="Group 372" transform="translate(87.006)">
    <path id="Path_1595" data-name="Path 1595" d="M2420.7-583.6a26.065,26.065,0,0,1-9.53-2.168,32.511,32.511,0,0,0-9.965-1.949,19.823,19.823,0,0,0-7.816,1.766c.08-.126,3.028-2.569,9.142-2.569a28.933,28.933,0,0,1,9.839,1.984c2.708.952,4.708,1.881,8.387,1.881,4.4,0,6.513-1.319,7.154-2.294,1.142-1.858.24-3.234,1.908-3.246a11.934,11.934,0,0,1,5.325,1.617,27.922,27.922,0,0,0,6.411,1.445,18.654,18.654,0,0,1-7.382-1.227c-2.583-1.055-3.291-1.067-3.5-.4C2430.071-587,2428.437-583.6,2420.7-583.6Z" transform="translate(-2390.191 595.444)" fill="#e0a136"/>
    <g id="Group_371" data-name="Group 371" transform="translate(33.834)">
      <path id="Path_1596" data-name="Path 1596" d="M2420.223-594.162c.171-.78,1.554-.872,2.388.08a2.351,2.351,0,0,1,.628,1.915s0-.447-.766-.837S2419.972-593.153,2420.223-594.162Z" transform="translate(-2420.198 594.771)" fill="#e0a136"/>
    </g>
    <path id="Path_1597" data-name="Path 1597" d="M2419.9-584.318c-2.617,0-7.2-1.5-10.079-2.707a29.041,29.041,0,0,0-10.524-2.443c-4.491,0-8.708,3.441-8.708,3.441a13.3,13.3,0,0,1,10.09-4.416,26.751,26.751,0,0,1,10.353,2.523,24.382,24.382,0,0,0,9.142,2.294c4.639,0,6.662-1.64,7.336-2.925,1.234-2.294.251-4.06,2.023-4.06,2.228,0,3.668.975,5.622,2.03a25.828,25.828,0,0,0,6.787,1.8,16.858,16.858,0,0,1-7.816-1.548c-2.731-1.308-3.314-1.262-3.428-.4C2430.414-588.7,2428.7-584.318,2419.9-584.318Z" transform="translate(-2390.59 595.089)" fill="#e11886"/>
    <path id="Path_1598" data-name="Path 1598" d="M2419.08-591.48c-.571-.768.446-2.11,1.989-2.11,1.782,0,2.228.963,2.228.963a1.537,1.537,0,0,0-1.36,0C2421.046-592.26,2419.823-590.471,2419.08-591.48Z" transform="translate(-2386.547 594.945)" fill="#e11886"/>
  </g>
  <g id="Group_376" data-name="Group 376" transform="translate(0 46.095)">
    <g id="Group_373" data-name="Group 373" transform="translate(0.003)">
      <path id="Path_1599" data-name="Path 1599" d="M2317.947-554.58a22.345,22.345,0,0,0,0,21.1h-.742a21.605,21.605,0,0,1,0-21.1Z" transform="translate(-2314.452 554.58)" fill="#3f4244"/>
      <path id="Path_1600" data-name="Path 1600" d="M2321.071-537.013c-3.348,0-4.171-2.993-4.171-6.675s.823-6.652,4.319-6.652,4.182,2.993,4.182,6.652S2324.568-537.013,2321.071-537.013Zm.08-12.5c-2.434,0-3.234,2.168-3.234,5.849s.8,5.826,3.234,5.826,3.223-2.168,3.223-5.826-.8-5.861-3.223-5.861Z" transform="translate(-2314.103 555.203)" fill="#3f4244"/>
      <path id="Path_1601" data-name="Path 1601" d="M2331.325-546.512v-.367c0-1.147-.285-2.684-2.377-2.684a2.2,2.2,0,0,0-1.626.466,2.215,2.215,0,0,0-.82,1.484q0,.206,0,.413a2.452,2.452,0,0,0,1.9,2.512l1.943.734a3.28,3.28,0,0,1,2.285,3.441,3.449,3.449,0,0,1-.975,2.485,3.423,3.423,0,0,1-2.453,1.036h-.24c-3.52,0-3.759-2.535-3.759-4.014v-.344h.926v.413c0,1.8.72,3.12,2.834,3.12a2.448,2.448,0,0,0,2.651-2.225,2.764,2.764,0,0,0,0-.436,2.556,2.556,0,0,0-1.9-2.6l-1.874-.757a3.293,3.293,0,0,1-2-1.573,3.314,3.314,0,0,1-.287-2.533,3.292,3.292,0,0,1,3.337-2.374c2.822,0,3.3,1.927,3.3,3.441v.39Z" transform="translate(-2312.919 555.205)" fill="#3f4244"/>
      <path id="Path_1602" data-name="Path 1602" d="M2332.94-550.059h.926v2.294h0a3.213,3.213,0,0,1,3.257-2.535c3.017,0,3.908,2.9,3.908,6.629,0,3.945-.995,6.7-3.954,6.7a3.043,3.043,0,0,1-3.2-2.753h0v6.755h-.868Zm4.033,12.2c2.5,0,3.086-2.638,3.086-5.872,0-4.094-1.143-5.8-2.914-5.8-2.285,0-3.28,1.881-3.28,5.8C2333.865-540,2334.723-537.856,2336.974-537.856Z" transform="translate(-2311.814 555.208)" fill="#3f4244"/>
      <path id="Path_1603" data-name="Path 1603" d="M2342.337-543.746c0,2.053,0,5.9,2.983,5.9,2.674,0,3.108-2.672,3.108-3.624h.926c0,1.95-1.062,4.461-3.931,4.461-3.28,0-4.1-2.684-4.1-7.019,0-3.9,1.383-6.308,4.251-6.308s3.954,2.477,3.954,6.606Zm6.171-.826c0-2.294-.366-4.954-2.983-4.954-2.823,0-3.188,3.292-3.188,4.954Z" transform="translate(-2310.618 555.203)" fill="#3f4244"/>
      <path id="Path_1604" data-name="Path 1604" d="M2350-550.05h.926v1.892h0a2.983,2.983,0,0,1,3.063-2.19,2.5,2.5,0,0,1,1.843.574,2.515,2.515,0,0,1,.888,1.72.59.59,0,0,0,0,.138h0a3.053,3.053,0,0,1,3.108-2.386c2.011,0,3.04,1.216,3.04,3.246v9.725h-.926v-9.576c0-1.709-.88-2.638-2.183-2.638-1.9,0-2.914,1.56-2.914,3.75v8.464h-.926v-9.175c0-1.9-.629-3.074-2.285-3.074-1.989,0-2.857,1.755-2.857,3.75v8.5H2350Z" transform="translate(-2309.379 555.2)" fill="#3f4244"/>
      <path id="Path_1605" data-name="Path 1605" d="M2363.29-554.15h.926v2.466h-.926Zm0,4.656h.926v12.719h-.926Z" transform="translate(-2307.483 554.643)" fill="#3f4244"/>
      <path id="Path_1606" data-name="Path 1606" d="M2367.215-548.667h-1.726v-.826h1.726v-2.122c0-1.468.537-2.535,2.286-2.535a4.333,4.333,0,0,1,.948.069v.826a3.71,3.71,0,0,0-.8-.069c-.8,0-1.451.367-1.451,1.652v2.168h2.114v.837H2368.2v11.893h-.983Z" transform="translate(-2307.168 554.643)" fill="#3f4244"/>
      <path id="Path_1607" data-name="Path 1607" d="M2371.128-543.746c0,2.053,0,5.9,2.983,5.9,2.674,0,3.108-2.672,3.108-3.624h.926c0,1.95-1.074,4.461-3.942,4.461-3.28,0-4.1-2.684-4.1-7.019,0-3.9,1.383-6.308,4.251-6.308s3.965,2.477,3.965,6.606Zm6.171-.826c0-2.294-.366-4.954-2.994-4.954-2.811,0-3.177,3.292-3.177,4.954Z" transform="translate(-2306.511 555.203)" fill="#3f4244"/>
      <path id="Path_1608" data-name="Path 1608" d="M2378.6-550.051h.926v1.915h0a3.429,3.429,0,0,1,3.223-2.213,3.011,3.011,0,0,1,2.2.73,3.035,3.035,0,0,1,1.035,2.08,3.914,3.914,0,0,1,0,.631v9.576h-.926v-9.175c0-2.294-.949-3.051-2.525-3.051-1.943,0-3.028,1.835-3.028,4.049v8.177h-.926Z" transform="translate(-2305.301 555.2)" fill="#3f4244"/>
      <path id="Path_1609" data-name="Path 1609" d="M2387.627-543.746c0,2.053,0,5.9,2.982,5.9,2.674,0,3.108-2.672,3.108-3.624h.926c0,1.95-1.063,4.461-3.931,4.461-3.28,0-4.1-2.684-4.1-7.019,0-3.9,1.383-6.308,4.239-6.308s3.966,2.477,3.966,6.606Zm6.17-.826c0-2.294-.366-4.954-2.994-4.954-2.811,0-3.177,3.292-3.177,4.954Z" transform="translate(-2304.155 555.203)" fill="#3f4244"/>
      <path id="Path_1610" data-name="Path 1610" d="M2393.793-554.57a21.663,21.663,0,0,1,0,21.1h-.742a22.345,22.345,0,0,0,0-21.1Z" transform="translate(-2303.236 554.582)" fill="#3f4244"/>
    </g>
    <g id="Group_374" data-name="Group 374" transform="translate(98.902 2.787)">
      <path id="Path_1611" data-name="Path 1611" d="M2401-548.21h1.5v-3.28h.8v3.28h1.84v.722h-1.851v8.533c0,1.055.5,1.227.972,1.227a3.237,3.237,0,0,0,.994-.126v.711a5.536,5.536,0,0,1-1.143.126c-1.143,0-1.623-.654-1.623-1.858v-8.613H2401Z" transform="translate(-2401 552.247)" fill="#3f4244"/>
      <path id="Path_1612" data-name="Path 1612" d="M2411.547-538.864c0,.528.218.734.492.734a.968.968,0,0,0,.5-.1v.631a1.47,1.47,0,0,1-.846.195,1.146,1.146,0,0,1-.948-1.147v-.7h0a2.881,2.881,0,0,1-2.88,2.03c-1.92,0-2.765-1.376-2.765-3.085a2.762,2.762,0,0,1,2.285-3.051l2.377-.654c.949-.252,1.074-.7,1.074-1.629,0-2.007-.926-2.431-2.125-2.431-1.863,0-2.4,1.147-2.4,2.684h-.8c0-1.5.548-3.441,3.119-3.441s3.017,1.33,3.017,2.924Zm-.8-5.127h0c-.274.447-.572.516-1.394.746l-1.622.447a2.167,2.167,0,0,0-1.749,2.431c0,1.434.629,2.363,2.023,2.363,1.874,0,2.777-1.479,2.777-3.693Z" transform="translate(-2400.417 552.638)" fill="#3f4244"/>
      <path id="Path_1613" data-name="Path 1613" d="M2412.4-552.15h.8v5.987h0a2.779,2.779,0,0,1,2.823-2.2c2.765,0,3.428,2.523,3.428,5.734,0,3.441-.857,5.815-3.428,5.815a2.654,2.654,0,0,1-2.776-2.385h0v2.133h-.8Zm.8,9.542c0,3.234.742,5.1,2.7,5.1,2.171,0,2.686-2.294,2.686-5.1,0-3.441-.675-5.035-2.537-5.035s-2.845,1.629-2.845,5.035Z" transform="translate(-2399.373 552.15)" fill="#3f4244"/>
      <path id="Path_1614" data-name="Path 1614" d="M2419.56-552.15h.8v15.081h-.8Z" transform="translate(-2398.352 552.15)" fill="#3f4244"/>
      <path id="Path_1615" data-name="Path 1615" d="M2422.491-543.116c0,1.778,0,5.115,2.594,5.115,2.286,0,2.708-2.294,2.708-3.142h.8c0,1.686-.937,3.865-3.428,3.865-2.845,0-3.566-2.294-3.566-6.09,0-3.383,1.143-5.482,3.691-5.482s3.428,2.156,3.428,5.734Zm5.359-.723c0-2.007-.32-4.289-2.594-4.289-2.445,0-2.765,2.856-2.765,4.289Z" transform="translate(-2398.06 552.635)" fill="#3f4244"/>
      <path id="Path_1616" data-name="Path 1616" d="M2428.2-548.21h1.5v-3.28h.8v3.28h1.828v.722H2430.5v8.533c0,1.055.5,1.227.971,1.227a3.163,3.163,0,0,0,.983-.126v.711a5.447,5.447,0,0,1-1.143.126c-1.143,0-1.622-.654-1.622-1.858v-8.613h-1.5Z" transform="translate(-2397.12 552.247)" fill="#3f4244"/>
      <path id="Path_1617" data-name="Path 1617" d="M2437.922-545.5v-.31c0-1-.263-2.294-2.068-2.294a1.921,1.921,0,0,0-2.125,1.686v.367a2.144,2.144,0,0,0,1.646,2.179l1.691.631a2.856,2.856,0,0,1,2,2.948,3.011,3.011,0,0,1-2.971,3.051h-.206c-3.062,0-3.268-2.2-3.268-3.441v-.3h.8v.355c0,1.571.629,2.707,2.457,2.707a2.128,2.128,0,0,0,2.286-1.938v-.367a2.224,2.224,0,0,0-1.646-2.294l-1.622-.654a2.88,2.88,0,0,1-2.023-3.521,2.881,2.881,0,0,1,2.971-2.11c2.445,0,2.857,1.675,2.857,3.028v.333Z" transform="translate(-2396.488 552.641)" fill="#3f4244"/>
    </g>
    <g id="Group_375" data-name="Group 375" transform="translate(0 23.138)">
      <path id="Path_1618" data-name="Path 1618" d="M2320.678-530.764c0-1.25-.663-2.2-1.885-2.2-2.388,0-2.525,3.716-2.525,4.507v1.147h0a3.13,3.13,0,0,1,2.743-1.674c2.479,0,3.736,1.927,3.736,4.737s-1.371,5.127-4.045,5.127c-3.965,0-4.251-4-4.251-7.111,0-3.441.206-8.166,4.354-8.166a3.432,3.432,0,0,1,3.622,3.211v.378Zm-1.943,10.322c1.783,0,2.285-1.9,2.285-3.441s-.354-3.441-2.285-3.441-2.285,1.9-2.285,3.441S2316.929-520.442,2318.735-520.442Z" transform="translate(-2314.45 534.405)" fill="#3f4244"/>
      <path id="Path_1619" data-name="Path 1619" d="M2322.11-526.674c0-3.292.229-7.7,4.091-7.7s4.091,4.014,4.091,7.7c0,3.177-.228,7.581-4.091,7.581S2322.11-523.119,2322.11-526.674Zm4.091,6.182c2.182,0,2.285-3.028,2.285-6.182s-.126-6.308-2.285-6.308-2.286,3-2.286,6.308.1,6.182,2.286,6.182Z" transform="translate(-2313.357 534.411)" fill="#3f4244"/>
      <path id="Path_1620" data-name="Path 1620" d="M2332.117-531.167h1.623v1.376h0a2.889,2.889,0,0,1,2.628-1.628,2.161,2.161,0,0,1,2.285,1.8,3.029,3.029,0,0,1,2.571-1.8c2.857,0,2.857,2.294,2.857,3.6v8.028h-1.7v-7.833c0-.86-.057-2.294-1.462-2.294a2.038,2.038,0,0,0-2.034,2.041,1.725,1.725,0,0,0,0,.241v7.833h-1.7v-7.833c0-.86-.058-2.294-1.451-2.294a2.049,2.049,0,0,0-2.045,2.041,1.653,1.653,0,0,0,0,.241v7.833h-1.7Z" transform="translate(-2311.948 534.843)" fill="#3f4244"/>
      <path id="Path_1621" data-name="Path 1621" d="M2350.876-520.54c0,3.441-1.5,4.588-3.679,4.588a3.179,3.179,0,0,1-3.554-2.718v-.126h1.7a1.537,1.537,0,0,0,.508,1.068,1.528,1.528,0,0,0,1.114.388h.115c2.194,0,2.1-1.755,2.1-2.546v-1.479h0a2.57,2.57,0,0,1-2.445,1.525c-3.166,0-3.359-4.163-3.359-5.666,0-3.074.788-5.964,3.542-5.964a2.435,2.435,0,0,1,2.285,1.732h0v-1.445h1.611Zm-5.771-4.943c0,1.835.263,4.14,1.966,4.14s2.205-1.812,2.205-4.14-.366-4.45-2.182-4.45C2345.505-529.933,2345.105-528.19,2345.105-525.483Z" transform="translate(-2310.322 534.836)" fill="#3f4244"/>
    </g>
  </g>
  <path id="Path_1622" data-name="Path 1622" d="M2330.181-583.75c-4.959,0-8.81,1.64-11.427,4.863a17.551,17.551,0,0,0-3.942,11.366,10.67,10.67,0,0,0,1.211,5.4,7.872,7.872,0,0,0,3.336,3.165,13.782,13.782,0,0,0,6.079,1.067,14.382,14.382,0,0,0,7.462-2.007,15.263,15.263,0,0,0,5.508-5.872,17.137,17.137,0,0,0,2.126-8.338,9.448,9.448,0,0,0-2.628-7.145C2336.157-582.89,2333.563-583.75,2330.181-583.75Zm-3.919,24.6a9.375,9.375,0,0,1-4.571-1.032,6.675,6.675,0,0,1-2.88-2.833,10.637,10.637,0,0,1-.949-4.9,20.191,20.191,0,0,1,1.566-8.108,11.2,11.2,0,0,1,3.931-5.115,10.335,10.335,0,0,1,5.714-1.526,9.741,9.741,0,0,1,4.571.975,6.609,6.609,0,0,1,2.812,2.787,10.5,10.5,0,0,1,.948,4.828,19.557,19.557,0,0,1-2.582,10.23,9.328,9.328,0,0,1-8.548,4.691Z" transform="translate(-2314.4 596.391)" fill="#175f31"/>
  <g id="Group_377" data-name="Group 377" transform="translate(28.168 20.939)">
    <path id="Path_1623" data-name="Path 1623" d="M2339.1-559.868a10.079,10.079,0,0,0,1.863.677,7.818,7.818,0,0,0,2,.241,8.439,8.439,0,0,0,5.622-2.145,5.97,5.97,0,0,0,2.5-4.427,2.8,2.8,0,0,0-1.143-2.42,10.347,10.347,0,0,0-3.531-1.032,10.639,10.639,0,0,1-3.131-.895,2.113,2.113,0,0,1-.914-1.892,3.231,3.231,0,0,1,1.085-2.5,4.482,4.482,0,0,1,3.04-.94,4.992,4.992,0,0,1,3.188.986,1.646,1.646,0,0,1,.446,1.308v1.147h.617a26.166,26.166,0,0,1,.64-3.9,8.906,8.906,0,0,0-1.783-.631,7.05,7.05,0,0,0-5.165.654,9.8,9.8,0,0,0-3.177,2.42,4.127,4.127,0,0,0-.845,2.535,3.136,3.136,0,0,0,1.223,2.7,11.635,11.635,0,0,0,4.239,1.147,5.072,5.072,0,0,1,2.548.872,2.5,2.5,0,0,1,.617,1.858,3.814,3.814,0,0,1-1.223,2.867,4.31,4.31,0,0,1-3.062,1.147,7,7,0,0,1-2.171-.356,7.061,7.061,0,0,1-1.977-1.078h0v-2.936h-.719a30.782,30.782,0,0,1-.789,4.6Z" transform="translate(-2339.1 576.515)" fill="#175f31"/>
  </g>
  <path id="Path_1624" data-name="Path 1624" d="M2396.9-576.469a6.64,6.64,0,0,0-2.8.734,14.853,14.853,0,0,0-4.114,2.6,10.918,10.918,0,0,0-2.286,4.22,16.758,16.758,0,0,0-1.006,5.344,4.736,4.736,0,0,0,1.143,3.441,4.422,4.422,0,0,0,3.28,1.147,8.164,8.164,0,0,0,3.245-.768,20.862,20.862,0,0,0,4.32-2.844l-.171-.5a21.761,21.761,0,0,1-3.7,2.087,6.951,6.951,0,0,1-2.4.539,3.056,3.056,0,0,1-2.285-.917,3.334,3.334,0,0,1-.9-2.42,21.08,21.08,0,0,1,.378-3.188v-.092h.091c6.856-1.307,10.376-3.567,10.376-6.709a2.435,2.435,0,0,0-.845-1.915A3.421,3.421,0,0,0,2396.9-576.469Zm-7.153,8.819v-.195a18.422,18.422,0,0,1,1.542-4.587,5.132,5.132,0,0,1,1.852-2.041,4.556,4.556,0,0,1,2.365-.677,1.825,1.825,0,0,1,1.406.516,2.081,2.081,0,0,1,.491,1.514,4.281,4.281,0,0,1-1.829,3.326,12.405,12.405,0,0,1-5.713,2.168Z" transform="translate(-2304.142 597.459)" fill="#175f31"/>
  <g id="Group_378" data-name="Group 378" transform="translate(98.593 20.987)">
    <path id="Path_1625" data-name="Path 1625" d="M2414.4-574.463a.832.832,0,0,1,.629.252.908.908,0,0,1,.229.677,44.063,44.063,0,0,1-1.737,7.856,32.619,32.619,0,0,0-1.234,5.539,1.342,1.342,0,0,0,.286.883.957.957,0,0,0,.743.31c.96,0,2.971-1.147,5.953-3.3l-.217-.47-1.051.677a5.382,5.382,0,0,1-2.285,1.078.629.629,0,0,1-.709-.528.61.61,0,0,1,0-.149,39.286,39.286,0,0,1,1.143-5.482c1.052-4.2,1.646-6.629,1.771-7.26a5.462,5.462,0,0,0,.126-1.067,1.083,1.083,0,0,0-.263-.757.947.947,0,0,0-.708-.264,7.977,7.977,0,0,0-3.051.895,16.758,16.758,0,0,0-4.125,2.844,23.047,23.047,0,0,0-3.783,4.438l-.423.642,1.634-6.939a6.034,6.034,0,0,0,.126-1.021.964.964,0,0,0-.194-.654.728.728,0,0,0-.56-.207,3.042,3.042,0,0,0-1.337.378,39.959,39.959,0,0,0-4.628,2.879l.194.482a7.992,7.992,0,0,1,3.028-1.571.7.7,0,0,1,.549.241,1.011,1.011,0,0,1,.194.654,35.668,35.668,0,0,1-.765,4.932,89.75,89.75,0,0,1-2.343,9.324l.183.183a23.033,23.033,0,0,1,2.5-.5,28.365,28.365,0,0,1,2.456-8.338,15.536,15.536,0,0,1,4.423-5.138A6.068,6.068,0,0,1,2414.4-574.463Z" transform="translate(-2400.73 576.471)" fill="#175f31"/>
  </g>
  <path id="Path_1626" data-name="Path 1626" d="M2429.732-576.464a6.838,6.838,0,0,0-3.245.826,10.283,10.283,0,0,0-3.429,2.477,17.523,17.523,0,0,0-2.285,5.173,21.751,21.751,0,0,0-1.143,6.273,4.733,4.733,0,0,0,.446,2.294.835.835,0,0,0,.754.47,6.151,6.151,0,0,0,2.879-1.514,27.931,27.931,0,0,0,5.622-5.929v-.069h.388v.149a31.3,31.3,0,0,0-1.257,6.055,1.243,1.243,0,0,0,.205.815.809.809,0,0,0,.652.229,3.258,3.258,0,0,0,1.52-.459,24.119,24.119,0,0,0,3.793-2.638l-.148-.528c-1.851,1.457-2.434,1.629-2.708,1.629a.673.673,0,0,1-.514-.229.909.909,0,0,1-.183-.608,21.18,21.18,0,0,1,.583-3.59c.663-3.1,1.6-6.7,2.8-10.7l-.274-.172-1.143.619h0a13.66,13.66,0,0,0-1.794-.459A8.966,8.966,0,0,0,2429.732-576.464ZM2423-561.13a.707.707,0,0,1-.582-.333,1.582,1.582,0,0,1-.229-.986,22.354,22.354,0,0,1,.834-5.574,27.7,27.7,0,0,1,1.862-5.207,2.865,2.865,0,0,1,.926-1.239,7,7,0,0,1,2.7-.5,8.372,8.372,0,0,1,1.405.149,10.8,10.8,0,0,1,1.577.459h.1v.115a22.723,22.723,0,0,1-2.422,7.271,17.185,17.185,0,0,1-3.246,3.911c-1.394,1.273-2.285,1.9-2.9,1.9Z" transform="translate(-2299.441 597.454)" fill="#175f31"/>
  <path id="Path_1627" data-name="Path 1627" d="M2372.9-566.65c1.074-2.294,6.068-6.64,6.068-6.64a9.353,9.353,0,0,1,4.377-1.984,1.141,1.141,0,0,1,1.28.654,6.7,6.7,0,0,1-.218,2.649c-.091.482-1.69,7.26-1.69,7.26a39.376,39.376,0,0,0-.869,3.957c-.08.768.423.837.423.837.48.206,1.543-.39,1.543-.39.9-.551,2.011-1.273,2.011-1.273l.217.47c-.115.115-3.565,2.294-3.565,2.294a4.933,4.933,0,0,1-2.1.952,1.143,1.143,0,0,1-1.211-.883,7.522,7.522,0,0,1,.274-2.466c1.143-4.427,2.285-10.012,2.285-10.012.262-1.434-.16-1.709-.16-1.709-.617-.6-2.285.528-2.285.528a14.168,14.168,0,0,0-5.337,5.734,28.574,28.574,0,0,0-2.1,7.237l-.148.963a10.351,10.351,0,0,0-2.422.573l-.3-.3,2.845-12.9c1.828-8.28,1.805-9.611,1.805-9.611.149-1.273-.594-1.284-.594-1.284a2.929,2.929,0,0,0-1.3.4c-.72.39-1.863,1.147-1.863,1.147l-.194-.493a36.294,36.294,0,0,1,5.393-3.166s1.782-.688,1.325,1.342S2372.9-566.65,2372.9-566.65Z" transform="translate(-2306.67 596.321)" fill="#175f31"/>
  <path id="Path_1628" data-name="Path 1628" d="M2357.021-561.443a5.7,5.7,0,0,0,3.165.768,3.728,3.728,0,0,0,2.72-.872,11.484,11.484,0,0,0,2.457-4.45,18.839,18.839,0,0,0,1.257-6.491,2.612,2.612,0,0,0-.309-1.491,1.141,1.141,0,0,0-.971-.436,5.776,5.776,0,0,0-3.429,1.617,11.723,11.723,0,0,0-3.164,4.461,28.259,28.259,0,0,0-1.44,5.436ZM2356-568.324a31.217,31.217,0,0,0,.742-4.714c.138-1.239-.571-1.147-.571-1.147a3.09,3.09,0,0,0-1.314.4c-.72.39-1.862,1.147-1.862,1.147l-.194-.482a38.08,38.08,0,0,1,5.394-3.177s1.794-.688,1.337,1.353c-.16.688-.617,2.821-1.143,5.218a18.736,18.736,0,0,1,2.971-3.808,11.287,11.287,0,0,1,3.166-2.1,7.437,7.437,0,0,1,2.766-.78,1.439,1.439,0,0,1,1.256.734,5.66,5.66,0,0,1,.732,2.982,16.605,16.605,0,0,1-1.143,6.01,10.626,10.626,0,0,1-2.5,4.014,18.772,18.772,0,0,1-3.257,2.6,6.692,6.692,0,0,1-3.428,1.147,7.814,7.814,0,0,1-2.286-.482c-.788,3.785-1.577,6.778-1.885,9.267a15.213,15.213,0,0,0-2.571.5l-.24-.2c1.143-4.932,2.754-11.1,4.045-18.488" transform="translate(-2309.096 597.468)" fill="#175f31"/>
  <g id="Group_379" data-name="Group 379" transform="translate(138.053 20.735)">
    <path id="Path_1629" data-name="Path 1629" d="M2439.4-572.538a2.439,2.439,0,0,1-3.428,0,2.45,2.45,0,0,1,0-3.441,2.416,2.416,0,0,1,3.428,0,2.443,2.443,0,0,1,.72,1.732,2.411,2.411,0,0,1-.719,1.709Zm-3.2-3.211a2.032,2.032,0,0,0-.617,1.491,2.1,2.1,0,0,0,.606,1.491,2.086,2.086,0,0,0,2.948,0h0a2.127,2.127,0,0,0,0-2.982,2.065,2.065,0,0,0-1.469-.614,2.063,2.063,0,0,0-1.468.614Zm1.428.138a1.706,1.706,0,0,1,.72.092.687.687,0,0,1,.423.677.6.6,0,0,1-.263.527,1.206,1.206,0,0,1-.389.138.605.605,0,0,1,.457.252.826.826,0,0,1,.148.424v.39a.589.589,0,0,0,0,.138h-.445v-.356a.632.632,0,0,0-.252-.608,1.141,1.141,0,0,0-.514-.092h-.377v1.055h-.468v-2.672Zm.5.413a1.391,1.391,0,0,0-.571-.092h-.4v.964h.423a1.139,1.139,0,0,0,.445,0,.4.4,0,0,0,.274-.413.413.413,0,0,0-.171-.4Z" transform="translate(-2435.263 576.692)" fill="#175f31"/>
  </g>
</svg>
