<svg xmlns="http://www.w3.org/2000/svg" width="23.404" height="23.404" viewBox="0 0 23.404 23.404"><g transform="translate(0.529 0.5)"><path d="M-45,253a10.7,10.7,0,0,1,10.7,10.7" transform="translate(56.674 -253)" fill="none" stroke="#e33a56" stroke-linecap="round" stroke-linejoin="round" stroke-width="1"/><path d="M-45,259a7.782,7.782,0,0,1,7.783,7.783" transform="translate(56.674 -256.081)" fill="none" stroke="#e33a56" stroke-linecap="round" stroke-linejoin="round" stroke-width="1"/><path d="M-45,265a4.864,4.864,0,0,1,4.864,4.864" transform="translate(56.674 -259.163)" fill="none" stroke="#e33a56" stroke-linecap="round" stroke-linejoin="round" stroke-width="1"/><path d="M-63.423,270.825c-5.053-5.053-7.036-11.263-4.429-13.869a19.5,19.5,0,0,1,2.217-1.765,1.033,1.033,0,0,1,1.473.293l3.106,4.927a1.035,1.035,0,0,1-.344,1.44l-1.821,1.092a1.034,1.034,0,0,0-.321,1.481,27.794,27.794,0,0,0,3.024,3.5,27.8,27.8,0,0,0,3.5,3.024,1.035,1.035,0,0,0,1.481-.321l1.092-1.821a1.036,1.036,0,0,1,1.44-.344l4.927,3.106a1.034,1.034,0,0,1,.293,1.473,19.51,19.51,0,0,1-1.765,2.217C-52.16,277.861-58.37,275.879-63.423,270.825Z" transform="translate(69 -254.027)" fill="#e33a56" stroke="#e33a56" stroke-linejoin="round" stroke-width="1"/></g></svg>